<svg xmlns="http://www.w3.org/2000/svg" xmlns:svg="http://www.w3.org/2000/svg" id="svg4764" width="12" height="12" version="1.1"><metadata id="metadata4769"/><g id="layer1" transform="translate(0,-1040.3622)" style="display:inline"><g id="g3075"><path id="path3071" d="m 3.90625,0 a 1.0001,1.0001 0 0 0 -0.625,0.28125 l -1,1 A 1.0001,1.0001 0 0 0 2.09375,1.5625 l -1,2 A 1.0001,1.0001 0 0 0 1,4 l 0,1 a 1.0001,1.0001 0 0 0 1,1 l 1,0 0,4 a 1.0001,1.0001 0 0 0 1,1 l 5,0 a 1.0001,1.0001 0 0 0 1,-1 l 0,-4 1,0 A 1.0001,1.0001 0 0 0 12,5 L 12,4 A 1.0001,1.0001 0 0 0 11.90625,3.5625 l -1,-2 a 1.0001,1.0001 0 0 0 -0.1875,-0.28125 l -1,-1 A 1.0001,1.0001 0 0 0 9,0 L 8,0 A 1.0001,1.0001 0 0 0 7,1 L 7,1.5 A 1.0001,1.0001 0 0 0 6.53125,1.625 1.0001,1.0001 0 0 0 6.5,1.625 1.0001,1.0001 0 0 0 6,1.5 L 6,1 A 1.0001,1.0001 0 0 0 5,0 L 4,0 A 1.0001,1.0001 0 0 0 3.90625,0 z" transform="translate(0,1040.3622)" style="opacity:.3;fill:#fff;fill-opacity:1;stroke:none"/><path id="rect3131" d="M 4 1 L 3 2 L 2 4 L 2 5 L 4 5 L 4 10 L 9 10 L 9 5 L 11 5 L 11 4 L 10 2 L 9 1 L 8 1 L 8 2.5 L 7 2.5 L 7 3 L 6 3 L 6 2.5 L 5 2.5 L 5 1 L 4 1 z" transform="translate(0,1040.3622)" style="fill:#4a4032;fill-opacity:1;stroke:none"/></g></g></svg>