<svg xmlns="http://www.w3.org/2000/svg" xmlns:svg="http://www.w3.org/2000/svg" id="svg4764" width="12" height="12" version="1.1"><metadata id="metadata4769"/><g id="layer1" transform="translate(0,-1040.3622)"><path id="path3651" d="m 11,1042.3622 -1,0 c -2.0906146,0.2445 -6,3.1998 -6,6 l 1,1 c 2.5527118,0 5.511449,-3.9042 6,-6 z m -3,2 1,0 0,1 -1,0 z m -5,1 -1,2 c 0.5,0 1,0 1.5,0 l 1.25,-2 z m 5,3.25 -2,1.25 0,1.5 2,-1 z" style="opacity:.3;color:#000;fill:#fff;stroke:#fff;stroke-width:2;stroke-linecap:butt;stroke-linejoin:round;stroke-miterlimit:4;stroke-opacity:1;stroke-dasharray:none;stroke-dashoffset:0;marker:none;visibility:visible;display:inline;overflow:visible;enable-background:accumulate;clip-rule:nonzero;isolation:auto;mix-blend-mode:normal;color-interpolation:sRGB;color-interpolation-filters:linearRGB;solid-color:#000;solid-opacity:1;fill-opacity:1;fill-rule:nonzero;filter-blend-mode:normal;filter-gaussianBlur-deviation:0;color-rendering:auto;image-rendering:auto;shape-rendering:auto;text-rendering:auto"/><path id="path3088" d="m 11,1042.3622 -1,0 c -2.0906146,0.2445 -6,3.1998 -6,6 l 1,1 c 2.5527118,0 5.511449,-3.9042 6,-6 z m -3,2 1,0 0,1 -1,0 z m -5,1 -1,2 c 0.5,0 1,0 1.5,0 l 1.25,-2 z m 5,3.25 -2,1.25 0,1.5 2,-1 z" style="fill:#4a4032;fill-opacity:1;stroke:none;color:#000;clip-rule:nonzero;display:inline;overflow:visible;visibility:visible;opacity:1;isolation:auto;mix-blend-mode:normal;color-interpolation:sRGB;color-interpolation-filters:linearRGB;solid-color:#000;solid-opacity:1;fill-rule:nonzero;stroke-width:1;stroke-linecap:butt;stroke-linejoin:miter;stroke-miterlimit:4;stroke-dasharray:none;stroke-dashoffset:0;stroke-opacity:1;filter-blend-mode:normal;filter-gaussianBlur-deviation:0;color-rendering:auto;image-rendering:auto;shape-rendering:auto;text-rendering:auto;enable-background:accumulate"/></g><rect id="canvas" width="12" height="12" x="0" y="0" style="fill:none;stroke:none;visibility:hidden"/></svg>